<svg width="40" height="58" viewBox="0 0 40 58" fill="none" xmlns="http://www.w3.org/2000/svg">
<path d="M19.9824 2.41669H19.999C25.6355 2.41669 31.9903 5.67093 33.7959 12.8493L33.8779 13.194C35.7663 21.5222 30.6748 28.6156 25.9355 33.1725L25.9346 33.1745C24.2815 34.7804 22.1406 35.5837 19.999 35.5837C17.858 35.5836 15.7166 34.7811 14.0459 33.1735V33.1725L13.6006 32.738C9.06969 28.244 4.42695 21.4683 6.02051 13.5671L6.10352 13.1774C7.78944 5.75956 14.2718 2.41672 19.9824 2.41669ZM19.999 10.4333C16.823 10.4334 14.2491 13.0072 14.249 16.1833C14.249 19.3594 16.823 21.9332 19.999 21.9333C23.1752 21.9333 25.749 19.3594 25.749 16.1833C25.749 13.0072 23.1751 10.4333 19.999 10.4333Z" fill="#007DBA" stroke="white"/>
<circle cx="20" cy="51" r="6.5" fill="#007DBA" stroke="white"/>
<circle cx="20" cy="51" r="3" fill="white"/>
</svg>
