<svg xmlns="http://www.w3.org/2000/svg" width="42" height="42" viewBox="0 0 42 42" fill="none">
  <path d="M28.3325 3.5H13.6675C7.2975 3.5 3.5 7.2975 3.5 13.6675V28.315C3.5 34.7025 7.2975 38.5 13.6675 38.5H28.315C34.685 38.5 38.4825 34.7025 38.4825 28.3325V13.6675C38.5 7.2975 34.7025 3.5 28.3325 3.5ZM20.3175 20.72C20.3175 26.11 19.145 27.3175 16.0125 29.1725C15.8025 29.295 15.575 29.3475 15.3475 29.3475C14.8925 29.3475 14.455 29.12 14.21 28.7C13.8425 28.07 14.0525 27.265 14.665 26.8975C16.7825 25.6375 17.5175 25.1825 17.6575 22.015H14.3325C12.425 22.015 10.9375 20.5275 10.9375 18.62V16.03C10.9375 14.1225 12.425 12.635 14.3325 12.635H16.94C18.8125 12.635 20.335 14.1575 20.335 16.03V20.72H20.3175ZM31.0625 20.72C31.0625 26.11 29.89 27.3175 26.7575 29.1725C26.5475 29.295 26.32 29.3475 26.0925 29.3475C25.6375 29.3475 25.2 29.12 24.955 28.7C24.5875 28.07 24.7975 27.265 25.41 26.8975C27.5275 25.6375 28.2625 25.1825 28.4025 22.015H25.06C23.1525 22.015 21.665 20.5275 21.665 18.62V16.03C21.665 14.1225 23.1525 12.635 25.06 12.635H27.6675C29.54 12.635 31.0625 14.1575 31.0625 16.03V20.72Z" fill="#007DBA"/>
</svg>