<svg xmlns="http://www.w3.org/2000/svg" width="38" height="38" viewBox="0 0 38 38" fill="none">
  <path d="M33.725 19.3643H28.215C26.6633 19.3643 25.2858 20.2193 24.5892 21.6126L23.2592 24.2409C22.9425 24.8743 22.3092 25.2701 21.6125 25.2701H16.4192C15.9283 25.2701 15.2317 25.1593 14.7725 24.2409L13.4425 21.6284C12.7458 20.2509 11.3525 19.3801 9.81666 19.3801H4.27499C3.65749 19.3801 3.16666 19.8709 3.16666 20.4884V25.6501C3.16666 31.3976 6.61832 34.8334 12.3817 34.8334H25.65C31.0808 34.8334 34.4217 31.8568 34.8333 26.5684V20.4726C34.8333 19.8709 34.3425 19.3643 33.725 19.3643Z" fill="#007DBA"/>
  <path d="M34.8333 12.3659V17.1792C34.485 17.0526 34.105 16.9892 33.725 16.9892H28.215C25.7608 16.9892 23.56 18.3509 22.4675 20.5359L21.28 22.8792H16.7517L15.5642 20.5517C14.4717 18.3509 12.2708 16.9892 9.81666 16.9892H4.27499C3.89499 16.9892 3.51499 17.0526 3.16666 17.1792V12.3659C3.16666 6.60258 6.60249 3.16675 12.3658 3.16675H25.6342C31.3975 3.16675 34.8333 6.60258 34.8333 12.3659Z" fill="#007DBA"/>
</svg>