<svg xmlns="http://www.w3.org/2000/svg" width="38" height="38" viewBox="0 0 38 38" fill="none">
  <path d="M32.4583 16.1342H27.8825C24.13 16.1342 21.0742 13.0784 21.0742 9.32591V4.75008C21.0742 3.87925 20.3617 3.16675 19.4908 3.16675H12.7775C7.90084 3.16675 3.95834 6.33342 3.95834 11.9859V26.0142C3.95834 31.6667 7.90084 34.8334 12.7775 34.8334H25.2225C30.0992 34.8334 34.0417 31.6667 34.0417 26.0142V17.7176C34.0417 16.8467 33.3292 16.1342 32.4583 16.1342Z" fill="#007DBA"/>
  <path d="M25.0167 3.4992C24.3675 2.85003 23.2433 3.29336 23.2433 4.19586V9.7217C23.2433 12.0334 25.2067 13.9492 27.5975 13.9492C29.1017 13.965 31.1917 13.965 32.9808 13.965C33.8833 13.965 34.3583 12.9042 33.725 12.2709C31.445 9.97503 27.36 5.84253 25.0167 3.4992Z" fill="#007DBA"/>
</svg>