<svg xmlns="http://www.w3.org/2000/svg" width="52" height="52" viewBox="0 0 52 52" fill="none">
  <path d="M23.855 4.33325C13.0867 4.33325 4.33337 13.0866 4.33337 23.8549C4.33337 34.6233 13.0867 43.3766 23.855 43.3766C34.6234 43.3766 43.3767 34.6233 43.3767 23.8549C43.3767 13.0866 34.6234 4.33325 23.855 4.33325ZM29.25 25.4583H25.4584V29.2499C25.4584 30.1383 24.7217 30.8749 23.8334 30.8749C22.945 30.8749 22.2084 30.1383 22.2084 29.2499V25.4583H18.4167C17.5284 25.4583 16.7917 24.7216 16.7917 23.8333C16.7917 22.9449 17.5284 22.2083 18.4167 22.2083H22.2084V18.4166C22.2084 17.5283 22.945 16.7916 23.8334 16.7916C24.7217 16.7916 25.4584 17.5283 25.4584 18.4166V22.2083H29.25C30.1384 22.2083 30.875 22.9449 30.875 23.8333C30.875 24.7216 30.1384 25.4583 29.25 25.4583Z" fill="#7AB948"/>
  <path d="M47.6451 41.0583C46.9301 39.7367 45.4134 39 43.3767 39C41.8384 39 40.5167 39.6283 39.7367 40.7117C38.9567 41.795 38.7834 43.2467 39.2601 44.6983C40.1917 47.515 41.8167 48.1433 42.7051 48.2517C42.8351 48.2733 42.9651 48.2733 43.1167 48.2733C44.0701 48.2733 45.5434 47.8617 46.9734 45.7167C48.1217 44.0483 48.3384 42.38 47.6451 41.0583Z" fill="#7AB948"/>
</svg>