<svg xmlns="http://www.w3.org/2000/svg" width="52" height="52" viewBox="0 0 52 52" fill="none">
  <path d="M34.6667 4.33325H17.3333C11.3533 4.33325 6.5 9.18658 6.5 15.1666V36.8332C6.5 42.8132 11.3533 47.6666 17.3333 47.6666H34.6667C40.6467 47.6666 45.5 42.8132 45.5 36.8332V15.1666C45.5 9.18658 40.6467 4.33325 34.6667 4.33325ZM19.1967 40.3649C18.785 40.7766 18.2433 40.9932 17.68 40.9932C17.095 40.9932 16.5533 40.7766 16.1417 40.3649C15.73 39.9532 15.4917 39.4116 15.4917 38.8266C15.4917 38.2632 15.73 37.6999 16.1417 37.2882C16.3367 37.0932 16.575 36.9416 16.835 36.8332C17.3767 36.6166 17.9617 36.6166 18.5033 36.8332C18.6333 36.8766 18.7633 36.9416 18.8717 37.0283C19.0017 37.0933 19.11 37.2016 19.1967 37.2882C19.6083 37.6999 19.8467 38.2632 19.8467 38.8266C19.8467 39.4116 19.6083 39.9532 19.1967 40.3649ZM15.4917 30.1599C15.4917 29.8783 15.5567 29.5966 15.665 29.3366C15.7733 29.0549 15.925 28.8383 16.1417 28.6216C16.64 28.1233 17.3983 27.8849 18.0917 28.0366C18.2217 28.0582 18.3733 28.1016 18.5033 28.1666C18.6333 28.2099 18.7633 28.2749 18.8717 28.3616C19.0017 28.4266 19.11 28.5349 19.1967 28.6216C19.3917 28.8383 19.565 29.0549 19.6733 29.3366C19.7817 29.5966 19.825 29.8783 19.825 30.1599C19.825 30.7449 19.6083 31.2866 19.1967 31.6982C18.785 32.1099 18.2433 32.3266 17.68 32.3266C17.3767 32.3266 17.095 32.2616 16.835 32.1532C16.575 32.0449 16.3367 31.8932 16.1417 31.6982C15.73 31.2866 15.4917 30.7449 15.4917 30.1599ZM27.8633 40.3649C27.6683 40.5599 27.43 40.7116 27.17 40.8199C26.91 40.9282 26.6283 40.9932 26.325 40.9932C25.7617 40.9932 25.22 40.7766 24.8083 40.3649C24.3967 39.9532 24.1583 39.4116 24.1583 38.8266C24.1583 38.6749 24.18 38.5449 24.2017 38.3932C24.245 38.2632 24.2883 38.1333 24.3317 38.0033C24.3967 37.8733 24.4617 37.7433 24.5267 37.6133C24.6133 37.5049 24.7 37.3966 24.8083 37.2882C25.0033 37.0932 25.2417 36.9416 25.5017 36.8332C26.3033 36.5083 27.2567 36.6816 27.8633 37.2882C28.275 37.6999 28.4917 38.2632 28.4917 38.8266C28.4917 39.4116 28.275 39.9532 27.8633 40.3649ZM27.8633 31.6982C27.4517 32.1099 26.91 32.3266 26.325 32.3266C25.7617 32.3266 25.22 32.1099 24.8083 31.6982C24.3967 31.2866 24.1583 30.7449 24.1583 30.1599C24.1583 29.5966 24.3967 29.0333 24.8083 28.6216C25.61 27.8199 27.0617 27.8199 27.8633 28.6216C28.0583 28.8383 28.2317 29.0549 28.34 29.3366C28.4483 29.5966 28.4917 29.8783 28.4917 30.1599C28.4917 30.7449 28.275 31.2866 27.8633 31.6982ZM19.5 22.6632C17.2683 22.6632 15.4267 20.8433 15.4267 18.5899V16.4233C15.4267 14.1916 17.2467 12.3499 19.5 12.3499H32.5C34.7317 12.3499 36.5733 14.1699 36.5733 16.4233V18.5899C36.5733 20.8216 34.7533 22.6632 32.5 22.6632H19.5ZM36.53 40.3649C36.1183 40.7766 35.5767 40.9932 34.9917 40.9932C34.71 40.9932 34.4283 40.9282 34.1683 40.8199C33.9083 40.7116 33.67 40.5599 33.475 40.3649C33.0633 39.9532 32.8467 39.4116 32.8467 38.8266C32.8467 38.2632 33.0633 37.6999 33.475 37.2882C34.06 36.6816 35.035 36.5083 35.8367 36.8332C36.0967 36.9416 36.335 37.0932 36.53 37.2882C36.9417 37.6999 37.1583 38.2632 37.1583 38.8266C37.1583 39.4116 36.9417 39.9532 36.53 40.3649ZM37.0067 30.9832C36.8983 31.2432 36.7467 31.4816 36.53 31.6982C36.1183 32.1099 35.5767 32.3266 34.9917 32.3266C34.4283 32.3266 33.8867 32.1099 33.475 31.6982C33.0633 31.2866 32.825 30.7449 32.825 30.1599C32.825 29.5966 33.0633 29.0333 33.475 28.6216C34.2767 27.8199 35.7283 27.8199 36.53 28.6216C36.9417 29.0333 37.18 29.5966 37.18 30.1599C37.18 30.4416 37.115 30.7233 37.0067 30.9832Z" fill="#7AB948"/>
</svg>