<svg xmlns="http://www.w3.org/2000/svg" width="42" height="42" viewBox="0 0 42 42" fill="none">
  <path d="M36.89 15.0151V26.985C36.89 28.945 35.84 30.7651 34.1425 31.7626L23.7475 37.7651C22.05 38.7451 19.95 38.7451 18.235 37.7651L7.84 31.7626C6.1425 30.7826 5.0925 28.9625 5.0925 26.985V15.0151C5.0925 13.0551 6.1425 11.235 7.84 10.2375L18.235 4.235C19.9325 3.255 22.0325 3.255 23.7475 4.235L34.1425 10.2375C35.84 11.235 36.89 13.0376 36.89 15.0151Z" stroke="#ADB6BF" stroke-width="2" stroke-linecap="round" stroke-linejoin="round"/>
  <path d="M21 19.2499C23.252 19.2499 25.0775 17.4243 25.0775 15.1724C25.0775 12.9205 23.252 11.095 21 11.095C18.7481 11.095 16.9225 12.9205 16.9225 15.1724C16.9225 17.4243 18.7481 19.2499 21 19.2499Z" stroke="#ADB6BF" stroke-width="2" stroke-linecap="round" stroke-linejoin="round"/>
  <path d="M28 29.1549C28 26.0049 24.8675 23.45 21 23.45C17.1325 23.45 14 26.0049 14 29.1549" stroke="#ADB6BF" stroke-width="2" stroke-linecap="round" stroke-linejoin="round"/>
</svg>