<svg xmlns="http://www.w3.org/2000/svg" width="42" height="42" viewBox="0 0 42 42" fill="none">
  <path d="M5.25 15.9424V26.0399C5.25 29.7499 5.25 29.7499 8.75 32.1124L18.375 37.6774C19.8275 38.5174 22.19 38.5174 23.625 37.6774L33.25 32.1124C36.75 29.7499 36.75 29.7499 36.75 26.0574V15.9424C36.75 12.2499 36.75 12.2499 33.25 9.88738L23.625 4.32238C22.19 3.48238 19.8275 3.48238 18.375 4.32238L8.75 9.88738C5.25 12.2499 5.25 12.2499 5.25 15.9424Z" stroke="#ADB6BF" stroke-width="2" stroke-linecap="round" stroke-linejoin="round"/>
  <path d="M21 26.25C23.8995 26.25 26.25 23.8995 26.25 21C26.25 18.1005 23.8995 15.75 21 15.75C18.1005 15.75 15.75 18.1005 15.75 21C15.75 23.8995 18.1005 26.25 21 26.25Z" stroke="#ADB6BF" stroke-width="2" stroke-linecap="round" stroke-linejoin="round"/>
</svg>