<svg width="578" height="200" viewBox="0 0 578 200" fill="none" xmlns="http://www.w3.org/2000/svg">
<rect x="392" y="-102" width="186" height="224" rx="16" fill="white" fill-opacity="0.4"/>
<rect x="393" y="-101" width="184" height="222" rx="15" stroke="white" stroke-opacity="0.3" stroke-width="2"/>
<path d="M435.896 19.6719V25.7949H419.871V19.6719H435.896ZM470.994 34.9062V41H442.107V35.7852L455.965 20.8145C457.41 19.1738 458.553 17.748 459.393 16.5371C460.232 15.3262 460.828 14.2324 461.18 13.2559C461.551 12.2598 461.736 11.3125 461.736 10.4141C461.736 9.10547 461.502 7.96289 461.033 6.98633C460.564 5.99023 459.881 5.21875 458.982 4.67188C458.104 4.125 457.02 3.85156 455.73 3.85156C454.305 3.85156 453.084 4.18359 452.068 4.84766C451.072 5.49219 450.311 6.39063 449.783 7.54297C449.275 8.69531 449.021 10.0137 449.021 11.498H441.258C441.258 8.97852 441.844 6.68359 443.016 4.61328C444.188 2.52344 445.867 0.853516 448.055 -0.396484C450.242 -1.64648 452.84 -2.27148 455.848 -2.27148C458.777 -2.27148 461.258 -1.7832 463.289 -0.806641C465.32 0.150391 466.863 1.51758 467.918 3.29492C468.973 5.07227 469.5 7.19141 469.5 9.65234C469.5 11.0195 469.275 12.3672 468.826 13.6953C468.377 15.0234 467.742 16.3418 466.922 17.6504C466.121 18.9395 465.164 20.248 464.051 21.5762C462.938 22.9043 461.697 24.2617 460.33 25.6484L452.01 34.9062H470.994ZM504.627 16.0098V23.1875C504.627 26.4688 504.295 29.2715 503.631 31.5957C502.967 33.9199 502.01 35.8242 500.76 37.3086C499.51 38.7734 498.016 39.8574 496.277 40.5605C494.539 41.2441 492.605 41.5859 490.477 41.5859C488.777 41.5859 487.195 41.3711 485.73 40.9414C484.266 40.4922 482.947 39.8086 481.775 38.8906C480.623 37.9531 479.627 36.7617 478.787 35.3164C477.967 33.8711 477.332 32.1426 476.883 30.1309C476.453 28.1191 476.238 25.8047 476.238 23.1875V16.0098C476.238 12.7285 476.57 9.93555 477.234 7.63086C477.918 5.32617 478.885 3.44141 480.135 1.97656C481.385 0.511719 482.879 -0.552734 484.617 -1.2168C486.355 -1.90039 488.289 -2.24219 490.418 -2.24219C492.137 -2.24219 493.719 -2.02734 495.164 -1.59766C496.629 -1.16797 497.938 -0.494141 499.09 0.423828C500.262 1.32227 501.258 2.49414 502.078 3.93945C502.898 5.36523 503.523 7.08398 503.953 9.0957C504.402 11.0879 504.627 13.3926 504.627 16.0098ZM496.893 24.2422V14.9258C496.893 13.2852 496.795 11.8594 496.6 10.6484C496.424 9.41797 496.16 8.37305 495.809 7.51367C495.457 6.6543 495.018 5.96094 494.49 5.43359C493.963 4.88672 493.357 4.48633 492.674 4.23242C491.99 3.97852 491.238 3.85156 490.418 3.85156C489.402 3.85156 488.494 4.05664 487.693 4.4668C486.893 4.85742 486.219 5.48242 485.672 6.3418C485.125 7.20117 484.705 8.34375 484.412 9.76953C484.139 11.1758 484.002 12.8945 484.002 14.9258V24.2422C484.002 25.8828 484.09 27.3184 484.266 28.5488C484.461 29.7793 484.734 30.834 485.086 31.7129C485.457 32.5918 485.896 33.3145 486.404 33.8809C486.932 34.4277 487.537 34.8379 488.221 35.1113C488.904 35.3652 489.656 35.4922 490.477 35.4922C491.512 35.4922 492.42 35.2871 493.201 34.877C494.002 34.4668 494.676 33.8223 495.223 32.9434C495.77 32.0449 496.18 30.8828 496.453 29.457C496.746 28.0117 496.893 26.2734 496.893 24.2422ZM510.457 8.80273V6.54688C510.457 4.92578 510.809 3.45117 511.512 2.12305C512.215 0.794922 513.24 -0.269531 514.588 -1.07031C515.955 -1.87109 517.615 -2.27148 519.568 -2.27148C521.561 -2.27148 523.23 -1.87109 524.578 -1.07031C525.945 -0.269531 526.971 0.794922 527.654 2.12305C528.357 3.45117 528.709 4.92578 528.709 6.54688V8.80273C528.709 10.3848 528.357 11.8398 527.654 13.168C526.971 14.4961 525.955 15.5605 524.607 16.3613C523.26 17.1621 521.6 17.5625 519.627 17.5625C517.654 17.5625 515.984 17.1621 514.617 16.3613C513.25 15.5605 512.215 14.4961 511.512 13.168C510.809 11.8398 510.457 10.3848 510.457 8.80273ZM515.701 6.54688V8.80273C515.701 9.54492 515.838 10.248 516.111 10.9121C516.404 11.5566 516.844 12.084 517.43 12.4941C518.016 12.9043 518.748 13.1094 519.627 13.1094C520.506 13.1094 521.219 12.9043 521.766 12.4941C522.332 12.084 522.752 11.5566 523.025 10.9121C523.318 10.248 523.465 9.54492 523.465 8.80273V6.54688C523.465 5.78516 523.318 5.07227 523.025 4.4082C522.752 3.74414 522.322 3.20703 521.736 2.79688C521.17 2.38672 520.447 2.18164 519.568 2.18164C518.709 2.18164 517.986 2.38672 517.4 2.79688C516.834 3.20703 516.404 3.74414 516.111 4.4082C515.838 5.07227 515.701 5.78516 515.701 6.54688ZM530.936 32.7969V30.541C530.936 28.9395 531.287 27.4746 531.99 26.1465C532.713 24.8184 533.758 23.7539 535.125 22.9531C536.492 22.1523 538.143 21.752 540.076 21.752C542.088 21.752 543.768 22.1523 545.115 22.9531C546.463 23.7539 547.479 24.8184 548.162 26.1465C548.865 27.4746 549.217 28.9395 549.217 30.541V32.7969C549.217 34.3984 548.865 35.8633 548.162 37.1914C547.479 38.5195 546.463 39.584 545.115 40.3848C543.787 41.1855 542.127 41.5859 540.135 41.5859C538.182 41.5859 536.512 41.1855 535.125 40.3848C533.758 39.584 532.713 38.5195 531.99 37.1914C531.287 35.8633 530.936 34.3984 530.936 32.7969ZM536.209 30.541V32.7969C536.209 33.5586 536.365 34.2715 536.678 34.9355C536.99 35.5801 537.439 36.1074 538.025 36.5176C538.631 36.9277 539.334 37.1328 540.135 37.1328C541.111 37.1328 541.883 36.9277 542.449 36.5176C543.016 36.1074 543.416 35.5801 543.65 34.9355C543.885 34.2715 544.002 33.5586 544.002 32.7969V30.541C544.002 29.7793 543.855 29.0762 543.562 28.4316C543.27 27.7676 542.83 27.2305 542.244 26.8203C541.678 26.4102 540.955 26.2051 540.076 26.2051C539.217 26.2051 538.494 26.4102 537.908 26.8203C537.342 27.2305 536.912 27.7676 536.619 28.4316C536.346 29.0762 536.209 29.7793 536.209 30.541ZM542.01 4.4375L521.18 37.7773L517.342 35.6387L538.172 2.29883L542.01 4.4375Z" fill="white"/>
<rect y="-102" width="186" height="224" rx="16" fill="white" fill-opacity="0.4"/>
<rect x="1" y="-101" width="184" height="222" rx="15" stroke="white" stroke-opacity="0.3" stroke-width="2"/>
<path d="M124.717 8.66667H134.113C136.453 8.6669 138.334 10.5544 138.334 12.8415V22.2829C138.334 24.5701 136.453 26.4584 134.113 26.4587H125.267C120.537 26.4585 116.253 22.9994 115.865 18.3464V18.3405L115.831 17.8307C115.738 15.2943 116.757 12.9419 118.466 11.2741H118.467L118.476 11.2653C119.977 9.72388 122.011 8.78827 124.264 8.67741L124.717 8.66667Z" fill="url(#paint0_linear_1_16904)" stroke="url(#paint1_linear_1_16904)"/>
<path d="M65.5 -16.3125H111.334C120.294 -16.3123 127.785 -9.6237 128.988 -0.976562V-0.975586C129.122 -0.0361325 128.353 0.791992 127.329 0.791992H124.717C120.186 0.792045 115.981 2.58417 112.953 5.65625C109.365 9.19737 107.569 14.0646 107.994 19.0264V19.0273C108.752 27.6417 116.314 34.3328 125.267 34.333H127.329C128.353 34.333 129.122 35.1611 128.988 36.1006V36.1016C127.785 44.7495 120.339 51.4373 111.334 51.4375H65.5C55.6472 51.4373 47.6672 43.4573 47.667 33.6045V1.52051C47.6672 -8.33226 55.6472 -16.3123 65.5 -16.3125ZM70.084 2.16699C67.933 2.16699 66.1465 3.89901 66.1465 6.10449C66.1467 8.30981 67.9331 10.042 70.084 10.042H97.584C99.739 10.0418 101.521 8.25955 101.521 6.10449C101.521 3.94929 99.7391 2.16717 97.584 2.16699H70.084Z" fill="url(#paint2_linear_1_16904)" stroke="url(#paint3_linear_1_16904)"/>
<rect x="392" y="132" width="186" height="224" rx="16" fill="white" fill-opacity="0.2"/>
<rect x="393" y="133" width="184" height="222" rx="15" stroke="white" stroke-opacity="0.3" stroke-width="2"/>
<path d="M472.271 190.333H497.729C503.091 190.334 507.464 194.663 507.412 200.012V205.109C507.412 210.466 503.086 214.791 497.729 214.791H472.217C466.86 214.791 462.533 210.466 462.533 205.109V200.017C462.533 194.663 466.91 190.333 472.271 190.333Z" fill="url(#paint4_linear_1_16904)" stroke="url(#paint5_linear_1_16904)"/>
<rect y="132" width="186" height="224" rx="16" fill="white" fill-opacity="0.2"/>
<rect x="1" y="133" width="184" height="222" rx="15" stroke="white" stroke-opacity="0.3" stroke-width="2"/>
<path d="M93 190.333C106.698 190.334 117.875 201.296 118.221 214.912L118.229 215.563C118.174 229.215 107.499 240.259 93.9033 240.738H93.5664C93.2062 240.685 92.7689 240.686 92.3418 240.736C78.4283 240.245 67.7707 229.202 67.7705 215.563C67.7705 201.647 79.0845 190.333 93 190.333Z" fill="url(#paint6_linear_1_16904)" stroke="url(#paint7_linear_1_16904)"/>
<rect x="196" y="65" width="186" height="224" rx="16" fill="white" fill-opacity="0.4"/>
<rect x="197" y="66" width="184" height="222" rx="15" stroke="white" stroke-opacity="0.3" stroke-width="2"/>
<path d="M285.983 140.621L285.608 140.524C280.851 139.295 277.096 135.54 275.867 130.781L275.77 130.406H258.102L258.384 131.096L273.442 167.906H266.926L254.072 136.486L253.609 135.355L253.146 136.486L240.293 167.906H233.777L250.818 126.249L250.822 126.24C250.833 126.215 250.842 126.196 250.864 126.147L250.865 126.146C250.892 126.087 250.913 126.039 250.937 125.994C250.95 125.968 250.967 125.941 250.985 125.908L251.079 125.755L251.085 125.745C251.104 125.714 251.112 125.702 251.118 125.693L251.125 125.683C251.173 125.613 251.223 125.546 251.274 125.482L251.276 125.481L251.291 125.463L251.462 125.275C251.476 125.261 251.491 125.246 251.51 125.229L251.512 125.227C251.559 125.18 251.606 125.137 251.654 125.096C251.668 125.085 251.681 125.074 251.69 125.066C251.701 125.058 251.708 125.051 251.715 125.046C251.775 124.998 251.835 124.952 251.896 124.91L251.902 124.906C251.908 124.902 251.914 124.897 251.918 124.895C251.92 124.893 251.922 124.892 251.924 124.891C251.925 124.889 251.927 124.889 251.928 124.888C251.933 124.884 251.932 124.885 251.929 124.887H251.93C251.994 124.843 252.064 124.8 252.141 124.757L252.142 124.758C252.17 124.742 252.187 124.732 252.229 124.71L252.23 124.711C252.28 124.686 252.33 124.662 252.379 124.64V124.639C252.411 124.624 252.446 124.61 252.482 124.595L252.481 124.594C252.536 124.572 252.593 124.553 252.651 124.533L252.655 124.532C252.693 124.519 252.717 124.51 252.742 124.502C252.817 124.48 252.893 124.461 252.968 124.445L252.975 124.443C253.005 124.436 252.996 124.439 253.059 124.427L253.06 124.428L253.25 124.398C253.295 124.393 253.306 124.392 253.33 124.39H253.336C253.431 124.381 253.521 124.375 253.609 124.375H275.77L275.867 124C277.376 118.157 282.694 113.828 289 113.828C295.306 113.828 300.624 118.157 302.134 124L302.23 124.375H324.391C324.479 124.375 324.569 124.381 324.663 124.39H324.671C324.695 124.392 324.706 124.394 324.75 124.398C324.814 124.407 324.876 124.416 324.935 124.428L324.942 124.429C324.975 124.434 325.005 124.439 325.033 124.444V124.445C325.109 124.461 325.183 124.481 325.259 124.504L325.265 124.506L325.356 124.536C325.419 124.558 325.472 124.577 325.521 124.597L325.526 124.599C325.554 124.61 325.58 124.622 325.625 124.642C325.671 124.662 325.719 124.686 325.77 124.712L325.772 124.713C325.814 124.733 325.836 124.745 325.859 124.758V124.757C325.936 124.8 326.006 124.843 326.07 124.887H326.072C326.069 124.885 326.068 124.884 326.072 124.888C326.073 124.888 326.075 124.89 326.076 124.891C326.078 124.892 326.08 124.893 326.082 124.895C326.086 124.897 326.091 124.902 326.098 124.906L326.104 124.91C326.164 124.952 326.224 124.997 326.282 125.044L326.29 125.051L326.345 125.098C326.397 125.143 326.443 125.183 326.484 125.224C326.529 125.268 326.517 125.254 326.537 125.275L326.543 125.281L326.708 125.463L326.721 125.478C326.772 125.539 326.822 125.605 326.871 125.677V125.678C326.877 125.687 326.884 125.696 326.894 125.711C326.901 125.722 326.91 125.736 326.92 125.751V125.752L327.014 125.906C327.034 125.942 327.05 125.971 327.064 125.999C327.086 126.039 327.106 126.082 327.132 126.138V126.139L327.177 126.237L327.182 126.249L344.224 167.906H337.707L324.854 136.486L324.391 135.355L323.928 136.486L311.074 167.906H304.558L319.617 131.096L319.898 130.406H302.23L302.134 130.781C300.905 135.54 297.149 139.295 292.391 140.524L292.016 140.621V213.906H305.406C307.072 213.906 308.421 215.256 308.421 216.922C308.421 218.588 307.071 219.938 305.405 219.938H272.593C270.928 219.937 269.577 218.587 269.577 216.922C269.577 215.256 270.928 213.906 272.593 213.906H285.983V140.621Z" fill="url(#paint8_linear_1_16904)" stroke="url(#paint9_linear_1_16904)"/>
<path d="M345.484 175.438H303.297C301.355 175.438 299.781 177.011 299.781 178.953C299.781 191.23 310.821 201.219 324.391 201.219C337.961 201.219 349 191.23 349 178.953C349 177.011 347.426 175.438 345.484 175.438Z" fill="url(#paint10_linear_1_16904)"/>
<path d="M278.219 178.953C278.219 177.011 276.645 175.438 274.703 175.438H232.516C230.574 175.438 229 177.011 229 178.953C229 191.23 240.039 201.219 253.609 201.219C267.179 201.219 278.219 191.23 278.219 178.953Z" fill="url(#paint11_linear_1_16904)"/>
<rect x="196" y="-169" width="186" height="224" rx="16" fill="white" fill-opacity="0.2"/>
<rect x="197" y="-168" width="184" height="222" rx="15" stroke="white" stroke-opacity="0.3" stroke-width="2"/>
<path d="M266.306 -100.666H311.697C321.456 -100.666 329.184 -97.7592 334.473 -92.471C339.761 -87.1828 342.668 -79.4545 342.668 -69.6956V-24.304C342.668 -14.5451 339.761 -6.81689 334.473 -1.52864C329.184 3.75961 321.456 6.66667 311.697 6.66667H266.306C256.547 6.66665 248.818 3.75958 243.53 -1.52864C238.242 -6.81688 235.335 -14.5452 235.335 -24.304V-69.6956C235.335 -79.4545 238.242 -87.1828 243.53 -92.471C248.819 -97.7593 256.547 -100.666 266.306 -100.666ZM278.18 -37.5521C276.36 -39.1461 273.624 -39.1009 271.91 -37.387L262.947 -28.4241L262.104 -29.2679L261.93 -29.4271C260.11 -31.0211 257.374 -30.9759 255.66 -29.262C253.84 -27.4963 253.841 -24.5799 255.66 -22.8138V-22.8128L259.723 -18.7503V-18.7513C260.59 -17.8295 261.808 -17.4125 262.947 -17.4124C264.102 -17.4124 265.261 -17.8391 266.172 -18.7503L278.359 -30.9378C280.07 -32.6488 280.124 -35.4397 278.52 -37.2181L278.359 -37.387L278.354 -37.3929L278.18 -37.5521ZM290.681 -30.5999C288.184 -30.5999 286.118 -28.5342 286.118 -26.0374C286.118 -23.5405 288.184 -21.475 290.681 -21.4749H319.118C321.674 -21.4749 323.681 -23.5448 323.681 -26.0374C323.681 -28.5299 321.674 -30.5999 319.118 -30.5999H290.681ZM278.18 -75.4681C276.36 -77.0624 273.624 -77.0171 271.91 -75.3031L262.947 -66.3402L262.104 -67.1839L261.93 -67.3431C260.169 -68.886 257.55 -68.8939 255.829 -67.3392L255.66 -67.1781C253.841 -65.4123 253.841 -62.4968 255.66 -60.7308V-60.7298L259.723 -56.6673C260.59 -55.7458 261.809 -55.3285 262.947 -55.3284C264.102 -55.3284 265.261 -55.7561 266.172 -56.6673L278.359 -68.8548C280.07 -70.5657 280.123 -73.3558 278.52 -75.1341L278.359 -75.3031L278.354 -75.3089L278.18 -75.4681ZM290.681 -68.5159C288.184 -68.5159 286.118 -66.4504 286.118 -63.9534C286.118 -61.4567 288.184 -59.391 290.681 -59.3909H319.118C321.674 -59.3909 323.68 -61.461 323.681 -63.9534C323.681 -66.4461 321.674 -68.5159 319.118 -68.5159H290.681Z" fill="url(#paint12_linear_1_16904)" stroke="url(#paint13_linear_1_16904)"/>
<defs>
<linearGradient id="paint0_linear_1_16904" x1="115.325" y1="10.6127" x2="134.919" y2="28.7432" gradientUnits="userSpaceOnUse">
<stop stop-color="white" stop-opacity="0.6"/>
<stop offset="1" stop-color="white"/>
</linearGradient>
<linearGradient id="paint1_linear_1_16904" x1="114.75" y1="8.16449" x2="134.211" y2="31.3258" gradientUnits="userSpaceOnUse">
<stop stop-color="white" stop-opacity="0.22"/>
<stop offset="1" stop-color="white" stop-opacity="0.04"/>
</linearGradient>
<linearGradient id="paint2_linear_1_16904" x1="47.167" y1="-7.86378" x2="118.542" y2="55.3641" gradientUnits="userSpaceOnUse">
<stop stop-color="white" stop-opacity="0.6"/>
<stop offset="1" stop-color="white"/>
</linearGradient>
<linearGradient id="paint3_linear_1_16904" x1="45.1518" y1="-16.8205" x2="116.823" y2="64.8369" gradientUnits="userSpaceOnUse">
<stop stop-color="white" stop-opacity="0.22"/>
<stop offset="1" stop-color="white" stop-opacity="0.04"/>
</linearGradient>
<linearGradient id="paint4_linear_1_16904" x1="462.033" y1="193.147" x2="487.595" y2="227.22" gradientUnits="userSpaceOnUse">
<stop stop-color="white" stop-opacity="0.6"/>
<stop offset="1" stop-color="white"/>
</linearGradient>
<linearGradient id="paint5_linear_1_16904" x1="460.91" y1="189.83" x2="484.208" y2="229.773" gradientUnits="userSpaceOnUse">
<stop stop-color="white" stop-opacity="0.22"/>
<stop offset="1" stop-color="white" stop-opacity="0.04"/>
</linearGradient>
<linearGradient id="paint6_linear_1_16904" x1="67.2705" y1="196.524" x2="118.69" y2="234.598" gradientUnits="userSpaceOnUse">
<stop stop-color="white" stop-opacity="0.6"/>
<stop offset="1" stop-color="white"/>
</linearGradient>
<linearGradient id="paint7_linear_1_16904" x1="66.0111" y1="189.827" x2="119.991" y2="241.234" gradientUnits="userSpaceOnUse">
<stop stop-color="white" stop-opacity="0.22"/>
<stop offset="1" stop-color="white" stop-opacity="0.04"/>
</linearGradient>
<linearGradient id="paint8_linear_1_16904" x1="233.032" y1="127.27" x2="341.435" y2="211.066" gradientUnits="userSpaceOnUse">
<stop stop-color="white" stop-opacity="0.8"/>
<stop offset="1" stop-color="white"/>
</linearGradient>
<linearGradient id="paint9_linear_1_16904" x1="230.293" y1="113.316" x2="342.902" y2="225.271" gradientUnits="userSpaceOnUse">
<stop stop-color="white" stop-opacity="0.22"/>
<stop offset="1" stop-color="white" stop-opacity="0.04"/>
</linearGradient>
<linearGradient id="paint10_linear_1_16904" x1="299.781" y1="178.793" x2="325.214" y2="214.707" gradientUnits="userSpaceOnUse">
<stop stop-color="white" stop-opacity="0.8"/>
<stop offset="1" stop-color="white"/>
</linearGradient>
<linearGradient id="paint11_linear_1_16904" x1="229" y1="178.793" x2="254.433" y2="214.707" gradientUnits="userSpaceOnUse">
<stop stop-color="white" stop-opacity="0.8"/>
<stop offset="1" stop-color="white"/>
</linearGradient>
<linearGradient id="paint12_linear_1_16904" x1="234.835" y1="-87.0653" x2="343.168" y2="-6.93402" gradientUnits="userSpaceOnUse">
<stop stop-color="white" stop-opacity="0.6"/>
<stop offset="1" stop-color="white"/>
</linearGradient>
<linearGradient id="paint13_linear_1_16904" x1="232.183" y1="-101.179" x2="345.94" y2="7.04027" gradientUnits="userSpaceOnUse">
<stop stop-color="white" stop-opacity="0.22"/>
<stop offset="1" stop-color="white" stop-opacity="0.04"/>
</linearGradient>
</defs>
</svg>
