<svg xmlns="http://www.w3.org/2000/svg" width="34" height="34" viewBox="0 0 34 34" fill="none">
  <path d="M22.6667 2.83331H11.3333C7.42333 2.83331 4.25 6.00665 4.25 9.91665V24.0833C4.25 27.9933 7.42333 31.1666 11.3333 31.1666H22.6667C26.5767 31.1666 29.75 27.9933 29.75 24.0833V9.91665C29.75 6.00665 26.5767 2.83331 22.6667 2.83331ZM12.5517 26.3925C12.2825 26.6616 11.9283 26.8033 11.56 26.8033C11.1775 26.8033 10.8233 26.6616 10.5542 26.3925C10.285 26.1233 10.1292 25.7691 10.1292 25.3866C10.1292 25.0183 10.285 24.65 10.5542 24.3808C10.6817 24.2533 10.8375 24.1541 11.0075 24.0833C11.3617 23.9416 11.7442 23.9416 12.0983 24.0833C12.1833 24.1116 12.2683 24.1541 12.3392 24.2108C12.4242 24.2533 12.495 24.3241 12.5517 24.3808C12.8208 24.65 12.9767 25.0183 12.9767 25.3866C12.9767 25.7691 12.8208 26.1233 12.5517 26.3925ZM10.1292 19.72C10.1292 19.5358 10.1717 19.3516 10.2425 19.1816C10.3133 18.9975 10.4125 18.8558 10.5542 18.7141C10.88 18.3883 11.3758 18.2325 11.8292 18.3316C11.9142 18.3458 12.0133 18.3741 12.0983 18.4166C12.1833 18.445 12.2683 18.4875 12.3392 18.5441C12.4242 18.5866 12.495 18.6575 12.5517 18.7141C12.6792 18.8558 12.7925 18.9975 12.8633 19.1816C12.9342 19.3516 12.9625 19.5358 12.9625 19.72C12.9625 20.1025 12.8208 20.4566 12.5517 20.7258C12.2825 20.995 11.9283 21.1366 11.56 21.1366C11.3617 21.1366 11.1775 21.0941 11.0075 21.0233C10.8375 20.9525 10.6817 20.8533 10.5542 20.7258C10.285 20.4566 10.1292 20.1025 10.1292 19.72ZM18.2183 26.3925C18.0908 26.52 17.935 26.6191 17.765 26.69C17.595 26.7608 17.4108 26.8033 17.2125 26.8033C16.8442 26.8033 16.49 26.6616 16.2208 26.3925C15.9517 26.1233 15.7958 25.7691 15.7958 25.3866C15.7958 25.2875 15.81 25.2025 15.8242 25.1033C15.8525 25.0183 15.8808 24.9333 15.9092 24.8483C15.9517 24.7633 15.9942 24.6783 16.0367 24.5933C16.0933 24.5225 16.15 24.4516 16.2208 24.3808C16.3483 24.2533 16.5042 24.1541 16.6742 24.0833C17.1983 23.8708 17.8217 23.9841 18.2183 24.3808C18.4875 24.65 18.6292 25.0183 18.6292 25.3866C18.6292 25.7691 18.4875 26.1233 18.2183 26.3925ZM18.2183 20.7258C17.9492 20.995 17.595 21.1366 17.2125 21.1366C16.8442 21.1366 16.49 20.995 16.2208 20.7258C15.9517 20.4566 15.7958 20.1025 15.7958 19.72C15.7958 19.3516 15.9517 18.9833 16.2208 18.7141C16.745 18.19 17.6942 18.19 18.2183 18.7141C18.3458 18.8558 18.4592 18.9975 18.53 19.1816C18.6008 19.3516 18.6292 19.5358 18.6292 19.72C18.6292 20.1025 18.4875 20.4566 18.2183 20.7258ZM12.75 14.8183C11.2908 14.8183 10.0867 13.6283 10.0867 12.155V10.7383C10.0867 9.27915 11.2767 8.07498 12.75 8.07498H21.25C22.7092 8.07498 23.9133 9.26498 23.9133 10.7383V12.155C23.9133 13.6141 22.7233 14.8183 21.25 14.8183H12.75ZM23.885 26.3925C23.6158 26.6616 23.2617 26.8033 22.8792 26.8033C22.695 26.8033 22.5108 26.7608 22.3408 26.69C22.1708 26.6191 22.015 26.52 21.8875 26.3925C21.6183 26.1233 21.4767 25.7691 21.4767 25.3866C21.4767 25.0183 21.6183 24.65 21.8875 24.3808C22.27 23.9841 22.9075 23.8708 23.4317 24.0833C23.6017 24.1541 23.7575 24.2533 23.885 24.3808C24.1542 24.65 24.2958 25.0183 24.2958 25.3866C24.2958 25.7691 24.1542 26.1233 23.885 26.3925ZM24.1967 20.2583C24.1258 20.4283 24.0267 20.5841 23.885 20.7258C23.6158 20.995 23.2617 21.1366 22.8792 21.1366C22.5108 21.1366 22.1567 20.995 21.8875 20.7258C21.6183 20.4566 21.4625 20.1025 21.4625 19.72C21.4625 19.3516 21.6183 18.9833 21.8875 18.7141C22.4117 18.19 23.3608 18.19 23.885 18.7141C24.1542 18.9833 24.31 19.3516 24.31 19.72C24.31 19.9041 24.2675 20.0883 24.1967 20.2583Z" fill="#7AB948"/>
</svg>