<svg xmlns="http://www.w3.org/2000/svg" width="34" height="34" viewBox="0 0 34 34" fill="none">
  <path d="M15.5972 2.83331C8.55634 2.83331 2.83301 8.55665 2.83301 15.5975C2.83301 22.6383 8.55634 28.3616 15.5972 28.3616C22.638 28.3616 28.3613 22.6383 28.3613 15.5975C28.3613 8.55665 22.638 2.83331 15.5972 2.83331ZM19.1247 16.6458H16.6455V19.125C16.6455 19.7058 16.1638 20.1875 15.583 20.1875C15.0022 20.1875 14.5205 19.7058 14.5205 19.125V16.6458H12.0413C11.4605 16.6458 10.9788 16.1641 10.9788 15.5833C10.9788 15.0025 11.4605 14.5208 12.0413 14.5208H14.5205V12.0416C14.5205 11.4608 15.0022 10.9791 15.583 10.9791C16.1638 10.9791 16.6455 11.4608 16.6455 12.0416V14.5208H19.1247C19.7055 14.5208 20.1872 15.0025 20.1872 15.5833C20.1872 16.1641 19.7055 16.6458 19.1247 16.6458Z" fill="#7AB948"/>
  <path d="M31.1524 26.8458C30.6849 25.9817 29.6932 25.5 28.3616 25.5C27.3557 25.5 26.4916 25.9108 25.9816 26.6192C25.4716 27.3275 25.3582 28.2767 25.6699 29.2258C26.2791 31.0675 27.3416 31.4783 27.9224 31.5492C28.0074 31.5633 28.0924 31.5633 28.1916 31.5633C28.8149 31.5633 29.7782 31.2942 30.7132 29.8917C31.4641 28.8008 31.6057 27.71 31.1524 26.8458Z" fill="#7AB948"/>
</svg>