<svg xmlns="http://www.w3.org/2000/svg" width="176" height="40" viewBox="0 0 176 40" fill="none">
  <path fill-rule="evenodd" clip-rule="evenodd" d="M137.514 9.81152H136.201V30.5643H147.621V29.1726H137.514V9.81152ZM155.571 15.0843C151.515 15.0396 148.863 18.276 148.908 22.9424C148.908 28.0045 151.716 30.9217 156.195 30.9217C157.885 30.9217 159.672 30.5004 160.933 29.8876V28.6301C159.549 29.2748 157.898 29.645 156.422 29.645C152.444 29.645 150.28 27.4172 150.28 23.1786H161.336V22.3678C161.336 17.8037 159.25 15.0779 155.571 15.0779V15.0843ZM150.28 21.9146C150.371 18.6654 152.457 16.3738 155.603 16.3738C158.457 16.3738 160.179 18.3335 160.179 21.9146H150.286H150.28ZM170.189 22.6934L175.675 15.3141H174.362L169.468 21.7997L164.742 15.3141H163.293L168.844 22.7828L162.942 30.5706H164.326L169.539 23.6509L174.616 30.5706H176L170.176 22.6934H170.189Z" fill="white"/>
  <path d="M47.6712 24.953L46.0852 30.5641H40.8658L47.6647 8.70703H54.2687L61.1717 30.5641H55.7572L54.0412 24.953H47.6712ZM53.3197 21.257L51.9352 16.6226C51.5387 15.3267 51.1422 13.7053 50.8107 12.4095H50.7457C50.4142 13.7053 50.0827 15.3586 49.7187 16.6226L48.3992 21.257H53.3197Z" fill="white"/>
  <path d="M75.6406 30.1748C74.7501 30.5642 73.0666 30.8897 71.1491 30.8897C65.9296 30.8897 62.5951 27.7746 62.5951 22.7827C62.5951 18.1483 65.8321 14.3501 71.8381 14.3501C73.1576 14.3501 74.6136 14.5799 75.6666 14.9693L74.8736 18.6334C74.2821 18.3717 73.3851 18.1483 72.0656 18.1483C69.4266 18.1483 67.7041 19.9995 67.7431 22.5912C67.7431 25.5084 69.7256 27.0341 72.1696 27.0341C73.3591 27.0341 74.2821 26.8426 75.0426 26.5489L75.6341 30.1812L75.6406 30.1748Z" fill="white"/>
  <path d="M84.5518 10.1689V14.7076H88.1528V18.3398H84.5518V24.0786C84.5518 25.9936 85.0133 26.8682 86.5343 26.8682C87.1583 26.8682 87.6588 26.8043 88.0228 26.7405L88.0553 30.4684C87.3923 30.7302 86.2093 30.8898 84.7858 30.8898C83.1673 30.8898 81.8153 30.3408 81.0223 29.5301C80.0993 28.5917 79.6378 27.066 79.6378 24.8254V18.3398H77.4928V14.7076H79.6378V11.2733L84.5583 10.1689H84.5518Z" fill="white"/>
  <path d="M96.2388 10.2962C96.2388 11.6559 95.1793 12.7603 93.5283 12.7603C91.8773 12.7603 90.8893 11.6559 90.9218 10.2962C90.8893 8.87272 91.9488 7.80029 93.5608 7.80029C95.1728 7.80029 96.1998 8.87272 96.2323 10.2962H96.2388ZM91.0583 30.5638V14.7072H96.0763V30.5638H91.0583Z" fill="white"/>
  <path d="M103.831 14.7075L106.008 22.0677C106.405 23.3954 106.704 24.6594 106.931 25.9297H107.029C107.295 24.6338 107.555 23.4337 107.919 22.0677L109.999 14.7075H115.284L109.271 30.5641H104.253L98.3774 14.7075H103.824H103.831Z" fill="white"/>
  <path d="M120.971 24.2121C121.134 26.2549 123.181 27.2251 125.528 27.2251C127.244 27.2251 128.628 26.9953 129.987 26.574L130.65 29.9126C128.999 30.5637 126.984 30.8829 124.806 30.8829C119.327 30.8829 116.187 27.7677 116.187 22.8078C116.187 18.7862 118.729 14.3433 124.345 14.3433C129.564 14.3433 131.54 18.3329 131.54 22.2524C131.54 23.095 131.443 23.8419 131.378 24.1994H120.978L120.971 24.2121ZM126.88 20.8353C126.88 19.6352 126.353 17.6244 124.039 17.6244C121.927 17.6244 121.069 19.5075 120.939 20.8353H126.88Z" fill="white"/>
  <path d="M14.9567 26.696V13.297C14.9567 11.5097 12.1292 11.5033 12.1292 13.297V26.696C12.1292 28.4834 14.9567 28.4897 14.9567 26.696Z" fill="white"/>
  <path d="M31.7332 37.2153H19.6042C17.7842 37.2153 17.7777 39.9922 19.6042 39.9922H31.7332C33.5532 39.9922 33.5597 37.2153 31.7332 37.2153Z" fill="white"/>
  <path d="M8.89207 32.6515V7.34097C8.89207 5.5536 6.06458 5.54721 6.06458 7.34097V32.6451C6.06458 34.4325 8.89207 34.4389 8.89207 32.6451V32.6515Z" fill="white"/>
  <path d="M19.6038 5.95557H7.47482C5.65482 5.95557 5.64832 8.73238 7.47482 8.73238H19.6038C21.4238 8.73238 21.4303 5.95557 19.6038 5.95557Z" fill="white"/>
  <path d="M24.2517 7.34097V32.6451C24.2517 34.4325 27.0792 34.4389 27.0792 32.6451V7.34097C27.0792 5.5536 24.2517 5.54721 24.2517 7.34097Z" fill="white"/>
  <path d="M25.6683 34.043H31.7328C32.4738 34.043 33.1823 33.4046 33.1498 32.6514C33.1173 31.8981 32.5258 31.2598 31.7328 31.2598H25.6683C24.9273 31.2598 24.2188 31.8981 24.2513 32.6514C24.2838 33.4046 24.8753 34.043 25.6683 34.043Z" fill="white"/>
  <path d="M31.7328 0H1.41691C-0.403083 0 -0.409583 2.77682 1.41691 2.77682H31.7328C33.5528 2.77682 33.5593 0 31.7328 0Z" fill="white"/>
  <path d="M2.82749 38.607V1.39127C2.82749 -0.39611 0 -0.402493 0 1.39127V38.607C0 40.3944 2.82749 40.4008 2.82749 38.607Z" fill="white"/>
  <path d="M12.1292 32.6514V38.6072C12.1292 39.335 12.7792 40.0308 13.5462 39.9988C14.3132 39.9669 14.9632 39.386 14.9632 38.6072V32.6514C14.9632 31.9237 14.3132 31.2279 13.5462 31.2598C12.7792 31.2918 12.1292 31.8727 12.1292 32.6514Z" fill="white"/>
  <path d="M1.41691 39.9922C4.9594 39.9922 8.50188 39.9922 12.0379 39.9922H13.5394C15.3594 39.9922 15.3659 37.2153 13.5394 37.2153H1.41691C-0.403083 37.2153 -0.409583 39.9922 1.41691 39.9922Z" fill="white"/>
  <path d="M33.1436 32.6512V1.39127C33.1436 -0.39611 30.3161 -0.402493 30.3161 1.39127V32.6512C30.3161 34.4386 33.1436 34.445 33.1436 32.6512Z" fill="white"/>
  <path d="M21.021 38.6073V7.34097C21.021 5.5536 18.1935 5.54721 18.1935 7.34097V38.6009C18.1935 40.3883 21.021 40.3947 21.021 38.6009V38.6073Z" fill="white"/>
</svg>