<svg xmlns="http://www.w3.org/2000/svg" width="30" height="36" viewBox="0 0 30 36" fill="none">
  <path d="M13.4608 24.0261V11.967C13.4608 10.3584 10.916 10.3526 10.916 11.967V24.0261C10.916 25.6348 13.4608 25.6405 13.4608 24.0261Z" fill="#E73F42"/>
  <path d="M28.5599 33.4942H17.6438C16.0058 33.4942 15.9999 35.996 17.6438 35.996H28.5599C30.1979 35.996 30.2037 33.4942 28.5599 33.4942Z" fill="#7AB948"/>
  <path d="M8.00374 29.3864V6.60688C8.00374 4.99824 5.45898 4.99249 5.45898 6.60688V29.3807C5.45898 30.9893 8.00374 30.9951 8.00374 29.3807V29.3864Z" fill="#7AB948"/>
  <path d="M17.6429 5.36016H6.72679C5.08879 5.36016 5.08294 7.86189 6.72679 7.86189H17.6429C19.2809 7.86189 19.2867 5.36016 17.6429 5.36016Z" fill="#7AB948"/>
  <path d="M21.8271 6.60688V29.3807C21.8271 30.9893 24.3719 30.9951 24.3719 29.3807V6.60688C24.3719 4.99824 21.8271 4.99249 21.8271 6.60688Z" fill="#1E7BBF"/>
  <path d="M23.1015 30.6413H28.5595C29.2264 30.6413 29.8641 30.0662 29.8348 29.3875C29.8056 28.7089 29.2732 28.1338 28.5595 28.1338H23.1015C22.4346 28.1338 21.7969 28.7089 21.8262 29.3875C21.8554 30.0662 22.3878 30.6413 23.1015 30.6413Z" fill="#1E7BBF"/>
  <path d="M28.56 0H1.27562C-0.362384 0 -0.368234 2.50174 1.27562 2.50174H28.56C30.198 2.50174 30.2039 0 28.56 0Z" fill="#1E7BBF"/>
  <path d="M2.54475 34.7471V1.25288C2.54475 -0.355766 0 -0.361512 0 1.25288V34.7471C0 36.3558 2.54475 36.3615 2.54475 34.7471Z" fill="#1E7BBF"/>
  <path d="M10.916 29.3863V34.7465C10.916 35.4015 11.501 36.0277 12.1913 35.999C12.8816 35.9703 13.4666 35.4474 13.4666 34.7465V29.3863C13.4666 28.7314 12.8816 28.1051 12.1913 28.1339C11.501 28.1626 10.916 28.6854 10.916 29.3863Z" fill="#1E7BBF"/>
  <path d="M1.27562 35.996C4.46387 35.996 7.65212 35.996 10.8345 35.996H12.1859C13.8239 35.996 13.8297 33.4942 12.1859 33.4942H1.27562C-0.362384 33.4942 -0.368234 35.996 1.27562 35.996Z" fill="#1B79BD"/>
  <path d="M29.8299 29.3869V1.25288C29.8299 -0.355766 27.2852 -0.361512 27.2852 1.25288V29.3869C27.2852 30.9955 29.8299 31.0013 29.8299 29.3869Z" fill="#1E7BBF"/>
  <path d="M18.9178 34.7467V6.60688C18.9178 4.99824 16.373 4.99249 16.373 6.60688V34.7409C16.373 36.3496 18.9178 36.3553 18.9178 34.7409V34.7467Z" fill="#7AB948"/>
</svg>