<svg xmlns="http://www.w3.org/2000/svg" width="176" height="40" viewBox="0 0 176 40" fill="none">
  <path fill-rule="evenodd" clip-rule="evenodd" d="M137.514 9.81128H136.201V30.5641H147.622V29.1725H137.514V9.81128ZM155.571 15.0841C151.515 15.0394 148.863 18.2758 148.909 22.9422C148.909 28.0043 151.717 30.9215 156.195 30.9215C157.885 30.9215 159.673 30.5002 160.934 29.8874V28.6299C159.549 29.2746 157.898 29.6448 156.423 29.6448C152.445 29.6448 150.28 27.417 150.28 23.1783H161.337V22.3676C161.337 17.8034 159.25 15.0777 155.571 15.0777V15.0841ZM150.28 21.9144C150.371 18.6652 152.458 16.3735 155.604 16.3735C158.457 16.3735 160.18 18.3333 160.18 21.9144H150.287H150.28ZM170.19 22.6932L175.676 15.3139H174.363L169.468 21.7995L164.743 15.3139H163.293L168.844 22.7826L162.942 30.5704H164.327L169.54 23.6507L174.616 30.5704H176.001L170.177 22.6932H170.19Z" fill="#057FBF"/>
  <path d="M47.6707 24.9538L46.0847 30.5649H40.8652L47.6642 8.70773H54.2682L61.1712 30.5649H55.7567L54.0407 24.9538H47.6707ZM53.3192 21.2577L51.9347 16.6233C51.5382 15.3274 51.1417 13.706 50.8102 12.4102H50.7452C50.4137 13.706 50.0822 15.3593 49.7182 16.6233L48.3987 21.2577H53.3192Z" fill="#7AB948"/>
  <path d="M75.6402 30.1748C74.7497 30.5642 73.0662 30.8898 71.1487 30.8898C65.9292 30.8898 62.5947 27.7746 62.5947 22.7827C62.5947 18.1483 65.8317 14.3501 71.8377 14.3501C73.1572 14.3501 74.6132 14.5799 75.6662 14.9693L74.8732 18.6334C74.2817 18.3717 73.3847 18.1483 72.0652 18.1483C69.4262 18.1483 67.7037 19.9995 67.7427 22.5912C67.7427 25.5085 69.7252 27.0341 72.1692 27.0341C73.3587 27.0341 74.2817 26.8426 75.0422 26.549L75.6337 30.1812L75.6402 30.1748Z" fill="#7AB948"/>
  <path d="M84.5512 10.1687V14.7074H88.1522V18.3396H84.5512V24.0784C84.5512 25.9934 85.0127 26.868 86.5337 26.868C87.1577 26.868 87.6582 26.8041 88.0222 26.7403L88.0547 30.4683C87.3917 30.73 86.2087 30.8896 84.7852 30.8896C83.1667 30.8896 81.8147 30.3406 81.0217 29.5299C80.0987 28.5915 79.6372 27.0658 79.6372 24.8252V18.3396H77.4922V14.7074H79.6372V11.273L84.5577 10.1687H84.5512Z" fill="#7AB948"/>
  <path d="M96.2387 10.2965C96.2387 11.6562 95.1792 12.7605 93.5282 12.7605C91.8772 12.7605 90.8892 11.6562 90.9217 10.2965C90.8892 8.87297 91.9487 7.80054 93.5607 7.80054C95.1727 7.80054 96.1997 8.87297 96.2322 10.2965H96.2387ZM91.0582 30.5641V14.7075H96.0762V30.5641H91.0582Z" fill="#7AB948"/>
  <path d="M103.83 14.7075L106.008 22.0677C106.404 23.3955 106.703 24.6594 106.931 25.9297H107.028C107.295 24.6339 107.555 23.4338 107.919 22.0677L109.999 14.7075H115.283L109.271 30.5642H104.253L98.377 14.7075H103.824H103.83Z" fill="#7AB948"/>
  <path d="M120.971 24.2127C121.134 26.2554 123.181 27.2257 125.528 27.2257C127.244 27.2257 128.628 26.9959 129.987 26.5745L130.65 29.9131C128.999 30.5642 126.984 30.8834 124.806 30.8834C119.327 30.8834 116.188 27.7683 116.188 22.8083C116.188 18.7867 118.729 14.3438 124.345 14.3438C129.564 14.3438 131.54 18.3334 131.54 22.2529C131.54 23.0955 131.443 23.8424 131.378 24.1999H120.978L120.971 24.2127ZM126.88 20.8358C126.88 19.6357 126.353 17.6249 124.039 17.6249C121.927 17.6249 121.069 19.508 120.939 20.8358H126.88Z" fill="#7AB948"/>
  <path d="M14.9564 26.6958V13.2968C14.9564 11.5094 12.1289 11.503 12.1289 13.2968V26.6958C12.1289 28.4832 14.9564 28.4895 14.9564 26.6958Z" fill="#E73F42"/>
  <path d="M31.7327 37.2158H19.6038C17.7838 37.2158 17.7773 39.9955 19.6038 39.9955H31.7327C33.5527 39.9955 33.5592 37.2158 31.7327 37.2158Z" fill="#7AB948"/>
  <path d="M8.89195 32.6516V7.34098C8.89195 5.5536 6.06445 5.54721 6.06445 7.34098V32.6452C6.06445 34.4326 8.89195 34.439 8.89195 32.6452V32.6516Z" fill="#7AB948"/>
  <path d="M19.6038 5.95558H7.47486C5.65486 5.95558 5.64836 8.73529 7.47486 8.73529H19.6038C21.4238 8.73529 21.4303 5.95558 19.6038 5.95558Z" fill="#7AB948"/>
  <path d="M24.252 7.34098V32.6452C24.252 34.4326 27.0794 34.439 27.0794 32.6452V7.34098C27.0794 5.5536 24.252 5.54721 24.252 7.34098Z" fill="#1E7BBF"/>
  <path d="M25.6681 34.046H31.7326C32.4736 34.046 33.1821 33.407 33.1496 32.6529C33.1171 31.8989 32.5256 31.2599 31.7326 31.2599H25.6681C24.9271 31.2599 24.2186 31.8989 24.2511 32.6529C24.2836 33.407 24.8751 34.046 25.6681 34.046Z" fill="#1E7BBF"/>
  <path d="M31.7322 0H1.41626C-0.403732 0 -0.410232 2.77971 1.41626 2.77971H31.7322C33.5522 2.77971 33.5587 0 31.7322 0Z" fill="#1E7BBF"/>
  <path d="M2.82749 38.6079V1.39206C2.82749 -0.395317 0 -0.401701 0 1.39206V38.6079C0 40.3953 2.82749 40.4017 2.82749 38.6079Z" fill="#1E7BBF"/>
  <path d="M12.1289 32.6515V38.6073C12.1289 39.335 12.7789 40.0308 13.5459 39.9989C14.3129 39.9669 14.9629 39.386 14.9629 38.6073V32.6515C14.9629 31.9237 14.3129 31.2279 13.5459 31.2598C12.7789 31.2918 12.1289 31.8727 12.1289 32.6515Z" fill="#1E7BBF"/>
  <path d="M1.41626 39.9955C4.95875 39.9955 8.50125 39.9955 12.0372 39.9955H13.5387C15.3587 39.9955 15.3652 37.2158 13.5387 37.2158H1.41626C-0.403732 37.2158 -0.410232 39.9955 1.41626 39.9955Z" fill="#1B79BD"/>
  <path d="M33.1439 32.652V1.392C33.1439 -0.395378 30.3164 -0.401762 30.3164 1.392V32.652C30.3164 34.4394 33.1439 34.4458 33.1439 32.652Z" fill="#1E7BBF"/>
  <path d="M21.0209 38.6074V7.34102C21.0209 5.55363 18.1934 5.54725 18.1934 7.34102V38.601C18.1934 40.3884 21.0209 40.3948 21.0209 38.601V38.6074Z" fill="#7AB948"/>
</svg>