<svg xmlns="http://www.w3.org/2000/svg" width="40" height="40" viewBox="0 0 40 40" fill="none">
  <path d="M17.9165 7.73335L10.5332 4.08335C6.54987 2.13335 3.2832 4.11668 3.2832 8.48335V33.2167C3.2832 35.1167 4.86654 36.6667 6.79987 36.6667H19.1665C20.0832 36.6667 20.8332 35.9167 20.8332 35V12.35C20.8332 10.6 19.5165 8.51668 17.9165 7.73335ZM14.9499 22.9167H9.16654C8.4832 22.9167 7.91654 22.35 7.91654 21.6667C7.91654 20.9833 8.4832 20.4167 9.16654 20.4167H14.9499C15.6332 20.4167 16.1999 20.9833 16.1999 21.6667C16.1999 22.35 15.6499 22.9167 14.9499 22.9167ZM14.9499 16.25H9.16654C8.4832 16.25 7.91654 15.6833 7.91654 15C7.91654 14.3167 8.4832 13.75 9.16654 13.75H14.9499C15.6332 13.75 16.1999 14.3167 16.1999 15C16.1999 15.6833 15.6499 16.25 14.9499 16.25Z" fill="#7AB948"/>
  <path d="M36.6668 30.0667V32.5C36.6668 34.8 34.8002 36.6666 32.5002 36.6666H24.9502C24.0502 36.6666 23.3335 35.95 23.3335 35.05V31.45C25.1168 31.6667 27.0002 31.15 28.3502 30.0667C29.4835 30.9833 30.9335 31.5333 32.5168 31.5333C34.0668 31.5333 35.5168 30.9833 36.6668 30.0667Z" fill="#7AB948"/>
  <path d="M36.6668 25.0833V25.1C36.5335 27.2833 34.7502 29.0333 32.5168 29.0333C30.2002 29.0333 28.3502 27.15 28.3502 24.8666C28.3502 27.4166 26.0002 29.4666 23.3335 28.95V20C23.3335 18.9333 24.3168 18.1333 25.3668 18.3666L28.3502 19.0333L29.1502 19.2166L32.5502 19.9833C33.3668 20.15 34.1168 20.4333 34.7668 20.85C34.7668 20.8666 34.7835 20.8666 34.7835 20.8666C34.9502 20.9833 35.1168 21.1166 35.2668 21.2666C36.0335 22.0333 36.5335 23.15 36.6502 24.7833C36.6502 24.8833 36.6668 24.9833 36.6668 25.0833Z" fill="#7AB948"/>
</svg>