<svg xmlns="http://www.w3.org/2000/svg" width="40" height="40" viewBox="0 0 40 40" fill="none">
  <path d="M26.9835 3.33337H13.0168C6.95016 3.33337 3.3335 6.95004 3.3335 13.0167V26.9667C3.3335 33.05 6.95016 36.6667 13.0168 36.6667H26.9668C33.0335 36.6667 36.6502 33.05 36.6502 26.9834V13.0167C36.6668 6.95004 33.0502 3.33337 26.9835 3.33337ZM12.7168 30.25C12.7168 30.9334 12.1502 31.5 11.4668 31.5C10.7835 31.5 10.2168 30.9334 10.2168 30.25V26.8C10.2168 26.1167 10.7835 25.55 11.4668 25.55C12.1502 25.55 12.7168 26.1167 12.7168 26.8V30.25ZM21.2502 30.25C21.2502 30.9334 20.6835 31.5 20.0002 31.5C19.3168 31.5 18.7502 30.9334 18.7502 30.25V23.3334C18.7502 22.65 19.3168 22.0834 20.0002 22.0834C20.6835 22.0834 21.2502 22.65 21.2502 23.3334V30.25ZM29.7835 30.25C29.7835 30.9334 29.2168 31.5 28.5335 31.5C27.8502 31.5 27.2835 30.9334 27.2835 30.25V19.8834C27.2835 19.2 27.8502 18.6334 28.5335 18.6334C29.2168 18.6334 29.7835 19.2 29.7835 19.8834V30.25ZM29.7835 14.6167C29.7835 15.3 29.2168 15.8667 28.5335 15.8667C27.8502 15.8667 27.2835 15.3 27.2835 14.6167V13C23.0335 17.3667 17.7168 20.45 11.7668 21.9334C11.6668 21.9667 11.5668 21.9667 11.4668 21.9667C10.9002 21.9667 10.4002 21.5834 10.2502 21.0167C10.0835 20.35 10.4835 19.6667 11.1668 19.5C16.7835 18.1 21.7835 15.15 25.7502 10.9834H23.6668C22.9835 10.9834 22.4168 10.4167 22.4168 9.73337C22.4168 9.05004 22.9835 8.48337 23.6668 8.48337H28.5502C28.6168 8.48337 28.6668 8.51671 28.7335 8.51671C28.8168 8.53337 28.9002 8.53337 28.9835 8.56671C29.0668 8.60004 29.1335 8.65004 29.2168 8.70004C29.2668 8.73337 29.3168 8.75004 29.3668 8.78337C29.3835 8.80004 29.3835 8.81671 29.4002 8.81671C29.4668 8.88337 29.5168 8.95004 29.5668 9.01671C29.6168 9.08337 29.6668 9.13337 29.6835 9.20004C29.7168 9.26671 29.7168 9.33337 29.7335 9.41671C29.7502 9.50004 29.7835 9.58337 29.7835 9.68337C29.7835 9.70004 29.8002 9.71671 29.8002 9.73337V14.6167H29.7835Z" fill="#7AB948"/>
</svg>