<svg xmlns="http://www.w3.org/2000/svg" width="40" height="40" viewBox="0 0 40 40" fill="none">
  <path d="M15.0002 3.33337C10.6335 3.33337 7.0835 6.88337 7.0835 11.25C7.0835 15.5334 10.4335 19 14.8002 19.15C14.9335 19.1334 15.0668 19.1334 15.1668 19.15C15.2002 19.15 15.2168 19.15 15.2502 19.15C15.2668 19.15 15.2668 19.15 15.2835 19.15C19.5502 19 22.9002 15.5334 22.9168 11.25C22.9168 6.88337 19.3668 3.33337 15.0002 3.33337Z" fill="#7AB948"/>
  <path d="M23.4666 23.5833C18.8166 20.4833 11.2333 20.4833 6.54994 23.5833C4.43327 25 3.2666 26.9166 3.2666 28.9666C3.2666 31.0166 4.43327 32.9166 6.53327 34.3166C8.8666 35.8833 11.9333 36.6666 14.9999 36.6666C18.0666 36.6666 21.1333 35.8833 23.4666 34.3166C25.5666 32.9 26.7333 31 26.7333 28.9333C26.7166 26.8833 25.5666 24.9833 23.4666 23.5833Z" fill="#7AB948"/>
  <path d="M33.3166 12.2333C33.5833 15.4666 31.2833 18.3 28.0999 18.6833C28.0833 18.6833 28.0833 18.6833 28.0666 18.6833H28.0166C27.9166 18.6833 27.8166 18.6833 27.7333 18.7166C26.1166 18.8 24.6333 18.2833 23.5166 17.3333C25.2333 15.8 26.2166 13.5 26.0166 11C25.8999 9.64996 25.4333 8.41663 24.7333 7.36663C25.3666 7.04996 26.0999 6.84996 26.8499 6.7833C30.1166 6.49996 33.0333 8.9333 33.3166 12.2333Z" fill="#7AB948"/>
  <path d="M36.6502 27.65C36.5169 29.2666 35.4836 30.6666 33.7502 31.6166C32.0836 32.5333 29.9836 32.9666 27.9002 32.9166C29.1002 31.8333 29.8002 30.4833 29.9336 29.05C30.1002 26.9833 29.1169 25 27.1502 23.4166C26.0336 22.5333 24.7336 21.8333 23.3169 21.3166C27.0002 20.25 31.6336 20.9666 34.4836 23.2666C36.0169 24.5 36.8002 26.05 36.6502 27.65Z" fill="#7AB948"/>
</svg>