<svg xmlns="http://www.w3.org/2000/svg" width="40" height="40" viewBox="0 0 40 40" fill="none">
  <path d="M29.6836 9.15004V10.3834L23.7836 6.96671C21.5502 5.68337 18.4336 5.68337 16.2169 6.96671L10.3169 10.4V9.15004C10.3169 5.40004 12.3669 3.33337 16.1169 3.33337H23.8836C27.6336 3.33337 29.6836 5.40004 29.6836 9.15004Z" fill="#7AB948"/>
  <path d="M29.7335 13.2834L29.5002 13.1667L27.2335 11.8667L22.5335 9.15002C21.1002 8.31669 18.9002 8.31669 17.4668 9.15002L12.7668 11.85L10.5002 13.1834L10.2002 13.3334C7.2835 15.3 7.0835 15.6667 7.0835 18.8167V26.35C7.0835 29.5 7.2835 29.8667 10.2668 31.8834L17.4668 36.0334C18.1835 36.4667 19.0835 36.65 20.0002 36.65C20.9002 36.65 21.8168 36.45 22.5335 36.0334L29.8002 31.8334C32.7335 29.8667 32.9168 29.5167 32.9168 26.35V18.8167C32.9168 15.6667 32.7168 15.3 29.7335 13.2834ZM24.6502 22.5L23.6335 23.75C23.4668 23.9334 23.3502 24.2834 23.3668 24.5334L23.4668 26.1334C23.5335 27.1167 22.8335 27.6167 21.9168 27.2667L20.4335 26.6667C20.2002 26.5834 19.8168 26.5834 19.5835 26.6667L18.1002 27.25C17.1835 27.6167 16.4835 27.1 16.5502 26.1167L16.6502 24.5167C16.6668 24.2667 16.5502 23.9167 16.3835 23.7334L15.3502 22.5C14.7168 21.75 15.0002 20.9167 15.9502 20.6667L17.5002 20.2667C17.7502 20.2 18.0335 19.9667 18.1668 19.7667L19.0335 18.4334C19.5668 17.6 20.4168 17.6 20.9668 18.4334L21.8335 19.7667C21.9668 19.9834 22.2668 20.2 22.5002 20.2667L24.0502 20.6667C25.0002 20.9167 25.2835 21.75 24.6502 22.5Z" fill="#7AB948"/>
</svg>